/* XPM */
static char * bottom_left_inactive_xpm[] = {
"6 6 4 1",
" 	c None",
"#  c #333333 s inactive_color_2",
".	c #888888 s inactive_color_1",
"+  c Black",
"+..###",
"+..###",
"+..###",
"+.....",
"++....",
" +++++"
};