/* XPM */
static char * close_inactive_xpm[] = {
"30 30 5 1",
" 	c None",
".	c #333333 s inactive_color_2",
"+	c #999999 s inactive_text_color",
"@	c #557755 s inactive_color_1",
"b  c Black",
"bbbbbbbbbbbbbbbbbbbbbbbbbbbbbb",
"@@@@@@@@@@@@@@@@@@@@@@@@@@@@@@",
"@@@@@@@@@@@@@@@@@@@@@@@@@@@@@@",
"..............................",
"..............................",
"..............................",
"..............................",
"..............................",
"..............................",
"..............................",
"..............................",
"..............................",
".........+++......+++.........",
"..........+++....+++..........",
"...........+++..+++...........",
"............++++++............",
".............++++.............",
".............++++.............",
"............++++++............",
"...........+++..+++...........",
"..........+++....+++..........",
".........+++......+++.........",
"..............................",
"..............................",
"..............................",
"..............................",
"..............................",
"..............................",
"..............................",
".............................."};
