/* XPM */
static char * right_inactive_xpm[] = {
"6 2 4 1",
" 	c None",
"#  c #117733 s inactive_color_2",
".	c #C0C0FF s inactive_color_1",
"+  c Black",
"###..+",
"###..+"
};
