/* XPM */
static char * shade_inactive_xpm[] = {
"30 30 5 1",
" 	c None",
".	c #333333 s inactive_color_2",
"+	c #888888 s inactive_text_color",
"@	c #C0C0FF s inactive_color_1",
"b  c Black",
"bbbbbbbbbbbbbbbbbbbbbbbbbbbbbb",
"@@@@@@@@@@@@@@@@@@@@@@@@@@@@@@",
"@@@@@@@@@@@@@@@@@@@@@@@@@@@@@@",
"..............................",
"..............................",
"..............................",
"..............................",
"..............................",
"..............................",
"..............................",
"..............++..............",
".............++++.............",
"............++++++............",
"...........++++++++...........",
"..........+++.++.+++..........",
"..............++..............",
"..............++..............",
"..............++..............",
"..............++..............",
"..............++..............",
"..............++..............",
"..............++..............",
"..............................",
"..............................",
"..............................",
"..............................",
"..............................",
"..............................",
"..............................",
".............................."};
