/* XPM */
static char * shade_pressed_xpm[] = {
"30 30 5 1",
" 	c None",
".	c #333333 s active_color_2",
"+	c #ffffff s active_color_1",
"@	c #C0C0FF s active_color_1",
"b  c Black",
"bbbbbbbbbbbbbbbbbbbbbbbbbbbbbb",
"@@@@@@@@@@@@@@@@@@@@@@@@@@@@@@",
"@@@@@@@@@@@@@@@@@@@@@@@@@@@@@@",
"..............................",
"..............................",
"..............................",
"..............................",
"..............................",
"..............................",
"..............................",
"..............................",
"..............................",
"...............++.............",
"..............++++............",
".............++++++...........",
"............++++++++..........",
"...........+++.++.+++.........",
"...............++.............",
"...............++.............",
"...............++.............",
"...............++.............",
"...............++.............",
"...............++.............",
"..............................",
"..............................",
"..............................",
"..............................",
"..............................",
"..............................",
".............................."
};