/* XPM */
static char * title_4_inactive_xpm[] = {
"1 30 4 1",
" 	c None",
".	c #117733 s inactive_color_1",
"+  c #888888 s inactive_color_2",
"b  c Black",
"b",
".",
".",
"+",
"+",
"+",
"+",
"+",
"+",
"+",
"+",
"+",
"+",
"+",
"+",
"+",
"+",
"+",
"+",
"+",
"+",
"+",
"+",
"+",
"+",
"+",
"+",
"+",
"+",
"+",
"+"};
