/* XPM */
static char * top_left_inactive_xpm[] = {
"6 30 4 1",
" 	c None",
"#  c #333333 s inactive_color_2",
".	c #888888 s inactive_color_1",
"+  c Black",
" +++++",
"++....",
"+.....",
"+..###",
"+..###",
"+..###",
"+..###",
"+..###",
"+..###",
"+..###",
"+..###",
"+..###",
"+..###",
"+..###",
"+..###",
"+..###",
"+..###",
"+..###",
"+..###",
"+..###",
"+..###",
"+..###",
"+..###",
"+..###",
"+..###",
"+..###",
"+..###",
"+..###",
"+..###",
"+..###"
};
